MetaBlum2.ufo
<glyph name="A" format="1">
  <advance width="560"/>
  <unicode hex="0041"/>
  <outline>
    <contour>
      <point x="245" y="1654" type="curve" smooth="yes"/>
      <point x="247" y="1654"/>
      <point x="252" y="1655"/>
      <point x="255" y="1655" type="curve" smooth="yes"/>
      <point x="262" y="1655"/>
      <point x="267" y="1652"/>
      <point x="268" y="1647" type="curve" smooth="yes"/>
      <point x="268" y="1646"/>
      <point x="302" y="1285"/>
      <point x="343" y="846" type="curve" smooth="yes"/>
      <point x="408" y="152"/>
      <point x="417" y="46"/>
      <point x="416" y="42" type="curve" smooth="yes"/>
      <point x="408" y="11"/>
      <point x="305" y="-51"/>
      <point x="258" y="-55" type="curve" smooth="yes"/>
      <point x="250" y="-55"/>
      <point x="249" y="-55"/>
      <point x="246" y="-53" type="curve" smooth="yes"/>
      <point x="244" y="-51"/>
      <point x="242" y="-49"/>
      <point x="242" y="-47" type="curve" smooth="yes"/>
      <point x="241" y="-45"/>
      <point x="227" y="107"/>
      <point x="210" y="290" type="curve" smooth="yes"/>
      <point x="193" y="473"/>
      <point x="179" y="625"/>
      <point x="178" y="627" type="curve"/>
      <point x="178" y="630"/>
      <point x="177" y="631"/>
      <point x="175" y="631" type="curve" smooth="yes"/>
      <point x="174" y="631"/>
      <point x="173" y="631"/>
      <point x="173" y="630" type="curve" smooth="yes"/>
      <point x="173" y="626"/>
      <point x="119" y="49"/>
      <point x="118" y="45" type="curve" smooth="yes"/>
      <point x="117" y="38"/>
      <point x="112" y="30"/>
      <point x="101" y="20" type="curve" smooth="yes"/>
      <point x="66" y="-14"/>
      <point x="-6" y="-52"/>
      <point x="-41" y="-55" type="curve" smooth="yes"/>
      <point x="-49" y="-55"/>
      <point x="-50" y="-55"/>
      <point x="-53" y="-53" type="curve" smooth="yes"/>
      <point x="-56" y="-51"/>
      <point x="-57" y="-50"/>
      <point x="-57" y="-46" type="curve" smooth="yes"/>
      <point x="-57" y="-44"/>
      <point x="-24" y="318"/>
      <point x="17" y="757" type="curve" smooth="yes"/>
      <point x="92" y="1556" type="line"/>
      <point x="95" y="1562" type="line" smooth="yes"/>
      <point x="110" y="1592"/>
      <point x="198" y="1646"/>
    </contour>
  </outline>
</glyph>
<glyph name="B" format="1">
  <advance width="680"/>
  <unicode hex="0042"/>
  <outline>
    <contour>
      <point x="166" y="1653" type="curve" smooth="yes"/>
      <point x="176" y="1655"/>
      <point x="185" y="1655"/>
      <point x="188" y="1654" type="curve" smooth="yes"/>
      <point x="190" y="1653"/>
      <point x="195" y="1649"/>
      <point x="201" y="1644" type="curve" smooth="yes"/>
      <point x="289" y="1572"/>
      <point x="353" y="1479"/>
      <point x="389" y="1373" type="curve"/>
      <point x="432" y="1241"/>
      <point x="427" y="1096"/>
      <point x="375" y="967" type="curve" smooth="yes"/>
      <point x="342" y="886"/>
      <point x="294" y="816"/>
      <point x="229" y="751" type="curve" smooth="yes"/>
      <point x="214" y="736" type="line"/>
      <point x="218" y="735" type="line"/>
      <point x="227" y="734"/>
      <point x="251" y="728"/>
      <point x="265" y="723" type="curve" smooth="yes"/>
      <point x="356" y="691"/>
      <point x="430" y="627"/>
      <point x="473" y="541" type="curve" smooth="yes"/>
      <point x="501" y="484"/>
      <point x="514" y="417"/>
      <point x="509" y="356" type="curve" smooth="yes"/>
      <point x="499" y="232"/>
      <point x="434" y="132"/>
      <point x="312" y="49" type="curve" smooth="yes"/>
      <point x="228" y="-8"/>
      <point x="139" y="-44"/>
      <point x="58" y="-52" type="curve"/>
      <point x="38" y="-55"/>
      <point x="25" y="-55"/>
      <point x="21" y="-52" type="curve" smooth="yes"/>
      <point x="18" y="-50" type="line"/>
      <point x="18" y="754" type="line"/>
      <point x="18" y="1557" type="line"/>
      <point x="21" y="1562" type="line"/>
      <point x="24" y="1569"/>
      <point x="41" y="1586"/>
      <point x="53" y="1595" type="curve" smooth="yes"/>
      <point x="88" y="1623"/>
      <point x="135" y="1646"/>
    </contour>
    <contour>
      <point x="207" y="1292" type="curve" smooth="yes"/>
      <point x="204" y="1300"/>
      <point x="200" y="1310"/>
      <point x="198" y="1315" type="curve" smooth="yes"/>
      <point x="194" y="1325" type="line"/>
      <point x="194" y="1097" type="line"/>
      <point x="194" y="869" type="line"/>
      <point x="195" y="869"/>
      <point x="197" y="876"/>
      <point x="200" y="883" type="curve" smooth="yes"/>
      <point x="253" y="1013"/>
      <point x="256" y="1162"/>
    </contour>
    <contour>
      <point x="218" y="546" type="curve" smooth="yes"/>
      <point x="213" y="551"/>
      <point x="205" y="557"/>
      <point x="201" y="561" type="curve" smooth="yes"/>
      <point x="194" y="566" type="line"/>
      <point x="194" y="311" type="line"/>
      <point x="194" y="56" type="line"/>
      <point x="196" y="57" type="line"/>
      <point x="211" y="59"/>
      <point x="216" y="60"/>
      <point x="227" y="62" type="curve" smooth="yes"/>
      <point x="242" y="66"/>
      <point x="246" y="68"/>
      <point x="257" y="80" type="curve" smooth="yes"/>
      <point x="290" y="116"/>
      <point x="312" y="159"/>
      <point x="325" y="211" type="curve" smooth="yes"/>
      <point x="346" y="298"/>
      <point x="331" y="390"/>
      <point x="283" y="469" type="curve" smooth="yes"/>
      <point x="266" y="497"/>
      <point x="242" y="525"/>
    </contour>
  </outline>
</glyph>
<glyph name="C" format="1">
  <advance width="650"/>
  <unicode hex="0043"/>
  <outline>
    <contour>
      <point x="272" y="1864" type="curve" smooth="yes"/>
      <point x="286" y="1865"/>
      <point x="333" y="1864"/>
      <point x="347" y="1863" type="curve"/>
      <point x="380" y="1858"/>
      <point x="404" y="1852"/>
      <point x="435" y="1840" type="curve" smooth="yes"/>
      <point x="518" y="1807"/>
      <point x="585" y="1746"/>
      <point x="628" y="1664" type="curve" smooth="yes"/>
      <point x="657" y="1609"/>
      <point x="671" y="1549"/>
      <point x="669" y="1489" type="curve" smooth="yes"/>
      <point x="666" y="1401"/>
      <point x="633" y="1320"/>
      <point x="571" y="1250" type="curve" smooth="yes"/>
      <point x="526" y="1199"/>
      <point x="459" y="1148"/>
      <point x="386" y="1112" type="curve" smooth="yes"/>
      <point x="353" y="1095"/>
      <point x="332" y="1088"/>
      <point x="316" y="1088" type="curve" smooth="yes"/>
      <point x="306" y="1088"/>
      <point x="302" y="1090"/>
      <point x="302" y="1096" type="curve" smooth="yes"/>
      <point x="302" y="1103"/>
      <point x="307" y="1110"/>
      <point x="318" y="1122" type="curve"/>
      <point x="334" y="1137"/>
      <point x="357" y="1154"/>
      <point x="385" y="1169" type="curve" smooth="yes"/>
      <point x="395" y="1175"/>
      <point x="398" y="1177"/>
      <point x="407" y="1186" type="curve" smooth="yes"/>
      <point x="429" y="1208"/>
      <point x="450" y="1238"/>
      <point x="464" y="1269" type="curve" smooth="yes"/>
      <point x="498" y="1346"/>
      <point x="502" y="1434"/>
      <point x="475" y="1515" type="curve"/>
      <point x="454" y="1574"/>
      <point x="417" y="1630"/>
      <point x="372" y="1670" type="curve" smooth="yes"/>
      <point x="318" y="1717"/>
      <point x="260" y="1743"/>
      <point x="188" y="1753" type="curve" smooth="yes"/>
      <point x="169" y="1755"/>
      <point x="130" y="1755"/>
      <point x="114" y="1753" type="curve" smooth="yes"/>
      <point x="97" y="1750"/>
      <point x="81" y="1746"/>
      <point x="78" y="1744" type="curve" smooth="yes"/>
      <point x="74" y="1741"/>
      <point x="59" y="1723"/>
      <point x="52" y="1712" type="curve" smooth="yes"/>
      <point x="43" y="1699"/>
      <point x="33" y="1679"/>
      <point x="27" y="1663" type="curve" smooth="yes"/>
      <point x="-4" y="1586"/>
      <point x="5" y="1509"/>
      <point x="55" y="1408" type="curve" smooth="yes"/>
      <point x="69" y="1380"/>
      <point x="84" y="1353"/>
      <point x="117" y="1298" type="curve" smooth="yes"/>
      <point x="151" y="1241"/>
      <point x="161" y="1224"/>
      <point x="175" y="1198" type="curve" smooth="yes"/>
      <point x="279" y="1001"/>
      <point x="290" y="765"/>
      <point x="204" y="557" type="curve" smooth="yes"/>
      <point x="185" y="511"/>
      <point x="166" y="475"/>
      <point x="114" y="389" type="curve" smooth="yes"/>
      <point x="89" y="348"/>
      <point x="76" y="325"/>
      <point x="64" y="302" type="curve" smooth="yes"/>
      <point x="13" y="208"/>
      <point x="-2" y="132"/>
      <point x="16" y="62" type="curve" smooth="yes"/>
      <point x="41" y="-35"/>
      <point x="111" y="-109"/>
      <point x="205" y="-139" type="curve" smooth="yes"/>
      <point x="257" y="-156"/>
      <point x="312" y="-159"/>
      <point x="362" y="-148" type="curve" smooth="yes"/>
      <point x="386" y="-143"/>
      <point x="390" y="-140"/>
      <point x="408" y="-120" type="curve" smooth="yes"/>
      <point x="425" y="-102"/>
      <point x="439" y="-82"/>
      <point x="452" y="-58" type="curve" smooth="yes"/>
      <point x="522" y="69"/>
      <point x="501" y="227"/>
      <point x="399" y="335" type="curve" smooth="yes"/>
      <point x="377" y="359"/>
      <point x="343" y="384"/>
      <point x="316" y="399" type="curve" smooth="yes"/>
      <point x="303" y="406"/>
      <point x="302" y="406"/>
      <point x="302" y="411" type="curve" smooth="yes"/>
      <point x="302" y="418"/>
      <point x="307" y="425"/>
      <point x="318" y="437" type="curve"/>
      <point x="345" y="463"/>
      <point x="394" y="493"/>
      <point x="434" y="506" type="curve" smooth="yes"/>
      <point x="446" y="510"/>
      <point x="465" y="514"/>
      <point x="469" y="513" type="curve" smooth="yes"/>
      <point x="476" y="511"/>
      <point x="512" y="489"/>
      <point x="529" y="476" type="curve" smooth="yes"/>
      <point x="575" y="441"/>
      <point x="614" y="392"/>
      <point x="637" y="341" type="curve" smooth="yes"/>
      <point x="676" y="255"/>
      <point x="679" y="156"/>
      <point x="645" y="67" type="curve" smooth="yes"/>
      <point x="625" y="13"/>
      <point x="592" y="-38"/>
      <point x="548" y="-82" type="curve" smooth="yes"/>
      <point x="465" y="-167"/>
      <point x="331" y="-240"/>
      <point x="223" y="-258" type="curve" smooth="yes"/>
      <point x="136" y="-273"/>
      <point x="61" y="-263"/>
      <point x="-9" y="-226" type="curve" smooth="yes"/>
      <point x="-36" y="-212"/>
      <point x="-59" y="-195"/>
      <point x="-81" y="-173" type="curve" smooth="yes"/>
      <point x="-114" y="-140"/>
      <point x="-138" y="-101"/>
      <point x="-153" y="-56" type="curve" smooth="yes"/>
      <point x="-168" y="-12"/>
      <point x="-171" y="31"/>
      <point x="-162" y="77" type="curve"/>
      <point x="-157" y="111"/>
      <point x="-147" y="141"/>
      <point x="-130" y="179" type="curve" smooth="yes"/>
      <point x="-113" y="216"/>
      <point x="-99" y="241"/>
      <point x="-53" y="319" type="curve" smooth="yes"/>
      <point x="-22" y="370"/>
      <point x="-13" y="386"/>
      <point x="0" y="409" type="curve" smooth="yes"/>
      <point x="43" y="489"/>
      <point x="71" y="582"/>
      <point x="81" y="673" type="curve" smooth="yes"/>
      <point x="98" y="820"/>
      <point x="69" y="968"/>
      <point x="0" y="1099" type="curve" smooth="yes"/>
      <point x="-14" y="1125"/>
      <point x="-24" y="1142"/>
      <point x="-58" y="1199" type="curve" smooth="yes"/>
      <point x="-112" y="1289"/>
      <point x="-132" y="1328"/>
      <point x="-148" y="1374" type="curve" smooth="yes"/>
      <point x="-173" y="1449"/>
      <point x="-173" y="1514"/>
      <point x="-147" y="1580" type="curve" smooth="yes"/>
      <point x="-118" y="1654"/>
      <point x="-66" y="1713"/>
      <point x="19" y="1769" type="curve" smooth="yes"/>
      <point x="43" y="1785"/>
      <point x="60" y="1795"/>
      <point x="86" y="1808" type="curve" smooth="yes"/>
      <point x="119" y="1824"/>
      <point x="142" y="1834"/>
      <point x="171" y="1843" type="curve" smooth="yes"/>
      <point x="205" y="1854"/>
      <point x="235" y="1861"/>
    </contour>
  </outline>
</glyph>
<glyph name="D" format="1">
  <advance width="695"/>
  <unicode hex="0044"/>
  <outline>
    <contour>
      <point x="166" y="1653" type="curve" smooth="yes"/>
      <point x="178" y="1656"/>
      <point x="186" y="1656"/>
      <point x="190" y="1653" type="curve" smooth="yes"/>
      <point x="196" y="1649"/>
      <point x="235" y="1600"/>
      <point x="257" y="1571" type="curve" smooth="yes"/>
      <point x="364" y="1427"/>
      <point x="437" y="1264"/>
      <point x="473" y="1090" type="curve" smooth="yes"/>
      <point x="485" y="1032"/>
      <point x="492" y="978"/>
      <point x="496" y="914" type="curve" smooth="yes"/>
      <point x="498" y="889"/>
      <point x="498" y="801"/>
      <point x="496" y="776" type="curve" smooth="yes"/>
      <point x="491" y="704"/>
      <point x="482" y="639"/>
      <point x="467" y="574" type="curve" smooth="yes"/>
      <point x="454" y="517"/>
      <point x="436" y="459"/>
      <point x="415" y="403" type="curve"/>
      <point x="375" y="302"/>
      <point x="320" y="204"/>
      <point x="256" y="118" type="curve" smooth="yes"/>
      <point x="234" y="88"/>
      <point x="224" y="76"/>
      <point x="186" y="31" type="curve" smooth="yes"/>
      <point x="171" y="12"/>
      <point x="145" y="-7"/>
      <point x="113" y="-25" type="curve" smooth="yes"/>
      <point x="81" y="-42"/>
      <point x="54" y="-53"/>
      <point x="35" y="-54" type="curve" smooth="yes"/>
      <point x="26" y="-54"/>
      <point x="24" y="-54"/>
      <point x="21" y="-52" type="curve" smooth="yes"/>
      <point x="18" y="-50" type="line"/>
      <point x="18" y="754" type="line"/>
      <point x="18" y="1557" type="line"/>
      <point x="21" y="1562" type="line"/>
      <point x="24" y="1569"/>
      <point x="41" y="1586"/>
      <point x="53" y="1595" type="curve" smooth="yes"/>
      <point x="88" y="1623"/>
      <point x="135" y="1646"/>
    </contour>
    <contour>
      <point x="218" y="1239" type="curve" smooth="yes"/>
      <point x="214" y="1249"/>
      <point x="207" y="1265"/>
      <point x="202" y="1274" type="curve" smooth="yes"/>
      <point x="194" y="1291" type="line"/>
      <point x="194" y="754" type="line"/>
      <point x="194" y="217" type="line"/>
      <point x="203" y="235" type="line" smooth="yes"/>
      <point x="258" y="344"/>
      <point x="297" y="475"/>
      <point x="312" y="601" type="curve" smooth="yes"/>
      <point x="319" y="654"/>
      <point x="321" y="693"/>
      <point x="321" y="752" type="curve" smooth="yes"/>
      <point x="321" y="801"/>
      <point x="321" y="820"/>
      <point x="317" y="860" type="curve" smooth="yes"/>
      <point x="305" y="992"/>
      <point x="272" y="1119"/>
    </contour>
  </outline>
</glyph>
<glyph name="E" format="1">
  <advance width="665"/>
  <unicode hex="0045"/>
  <outline>
    <contour>
      <point x="171" y="1654" type="curve" smooth="yes"/>
      <point x="179" y="1655"/>
      <point x="483" y="1655"/>
      <point x="487" y="1654" type="curve" smooth="yes"/>
      <point x="492" y="1652"/>
      <point x="493" y="1648"/>
      <point x="492" y="1642" type="curve" smooth="yes"/>
      <point x="484" y="1616"/>
      <point x="405" y="1564"/>
      <point x="350" y="1548" type="curve"/>
      <point x="341" y="1546" type="line"/>
      <point x="267" y="1545" type="line"/>
      <point x="194" y="1545" type="line"/>
      <point x="194" y="1143" type="line"/>
      <point x="194" y="741" type="line"/>
      <point x="302" y="741" type="line"/>
      <point x="411" y="741" type="line"/>
      <point x="414" y="739" type="line" smooth="yes"/>
      <point x="422" y="734"/>
      <point x="418" y="724"/>
      <point x="402" y="707" type="curve"/>
      <point x="375" y="681"/>
      <point x="327" y="652"/>
      <point x="287" y="638" type="curve" smooth="yes"/>
      <point x="268" y="631"/>
      <point x="264" y="631"/>
      <point x="227" y="631" type="curve" smooth="yes"/>
      <point x="194" y="631" type="line"/>
      <point x="194" y="343" type="line"/>
      <point x="194" y="55" type="line"/>
      <point x="339" y="55" type="line" smooth="yes"/>
      <point x="444" y="55"/>
      <point x="485" y="55"/>
      <point x="487" y="54" type="curve" smooth="yes"/>
      <point x="492" y="52"/>
      <point x="493" y="48"/>
      <point x="492" y="42" type="curve" smooth="yes"/>
      <point x="484" y="16"/>
      <point x="405" y="-36"/>
      <point x="350" y="-52" type="curve"/>
      <point x="341" y="-54" type="line"/>
      <point x="184" y="-55" type="line" smooth="yes"/>
      <point x="66" y="-55"/>
      <point x="26" y="-55"/>
      <point x="24" y="-54" type="curve" smooth="yes"/>
      <point x="22" y="-53"/>
      <point x="20" y="-52"/>
      <point x="19" y="-51" type="curve" smooth="yes"/>
      <point x="18" y="-49"/>
      <point x="18" y="52"/>
      <point x="18" y="754" type="curve" smooth="yes"/>
      <point x="18" y="1556" type="line"/>
      <point x="21" y="1562" type="line"/>
      <point x="38" y="1593"/>
      <point x="124" y="1646"/>
    </contour>
  </outline>
</glyph>
<glyph name="F" format="1">
  <advance width="665"/>
  <unicode hex="0046"/>
  <outline>
    <contour>
      <point x="171" y="1654" type="curve" smooth="yes"/>
      <point x="179" y="1655"/>
      <point x="483" y="1655"/>
      <point x="487" y="1654" type="curve" smooth="yes"/>
      <point x="492" y="1652"/>
      <point x="493" y="1648"/>
      <point x="492" y="1642" type="curve" smooth="yes"/>
      <point x="484" y="1616"/>
      <point x="405" y="1564"/>
      <point x="350" y="1548" type="curve"/>
      <point x="341" y="1546" type="line"/>
      <point x="267" y="1545" type="line"/>
      <point x="194" y="1545" type="line"/>
      <point x="194" y="1143" type="line"/>
      <point x="194" y="741" type="line"/>
      <point x="302" y="741" type="line"/>
      <point x="411" y="741" type="line"/>
      <point x="414" y="739" type="line" smooth="yes"/>
      <point x="422" y="734"/>
      <point x="418" y="724"/>
      <point x="402" y="707" type="curve"/>
      <point x="375" y="681"/>
      <point x="327" y="652"/>
      <point x="287" y="638" type="curve" smooth="yes"/>
      <point x="268" y="631"/>
      <point x="264" y="631"/>
      <point x="227" y="631" type="curve" smooth="yes"/>
      <point x="194" y="631" type="line"/>
      <point x="194" y="337" type="line"/>
      <point x="194" y="44" type="line"/>
      <point x="191" y="38" type="line" smooth="yes"/>
      <point x="188" y="31"/>
      <point x="170" y="13"/>
      <point x="155" y="2" type="curve" smooth="yes"/>
      <point x="100" y="-39"/>
      <point x="28" y="-67"/>
      <point x="19" y="-50" type="curve" smooth="yes"/>
      <point x="18" y="-49"/>
      <point x="18" y="206"/>
      <point x="18" y="754" type="curve" smooth="yes"/>
      <point x="18" y="1556" type="line"/>
      <point x="21" y="1562" type="line"/>
      <point x="38" y="1593"/>
      <point x="124" y="1646"/>
    </contour>
  </outline>
</glyph>
<glyph name="G" format="1">
  <advance width="665"/>
  <unicode hex="0047"/>
  <outline>
    <contour>
      <point x="309" y="1655" type="curve" smooth="yes"/>
      <point x="323" y="1656"/>
      <point x="364" y="1655"/>
      <point x="377" y="1654" type="curve"/>
      <point x="451" y="1642"/>
      <point x="512" y="1603"/>
      <point x="552" y="1542" type="curve" smooth="yes"/>
      <point x="598" y="1470"/>
      <point x="608" y="1379"/>
      <point x="577" y="1302" type="curve" smooth="yes"/>
      <point x="552" y="1240"/>
      <point x="504" y="1187"/>
      <point x="427" y="1135" type="curve"/>
      <point x="383" y="1107"/>
      <point x="344" y="1090"/>
      <point x="319" y="1088" type="curve" smooth="yes"/>
      <point x="309" y="1088"/>
      <point x="308" y="1088"/>
      <point x="305" y="1091" type="curve" smooth="yes"/>
      <point x="302" y="1093"/>
      <point x="302" y="1094"/>
      <point x="302" y="1097" type="curve"/>
      <point x="303" y="1099"/>
      <point x="304" y="1104"/>
      <point x="306" y="1107" type="curve" smooth="yes"/>
      <point x="311" y="1115"/>
      <point x="331" y="1134"/>
      <point x="349" y="1146" type="curve" smooth="yes"/>
      <point x="360" y="1154"/>
      <point x="366" y="1159"/>
      <point x="371" y="1165" type="curve" smooth="yes"/>
      <point x="403" y="1202"/>
      <point x="421" y="1257"/>
      <point x="419" y="1312" type="curve" smooth="yes"/>
      <point x="417" y="1351"/>
      <point x="408" y="1384"/>
      <point x="390" y="1419" type="curve" smooth="yes"/>
      <point x="361" y="1476"/>
      <point x="312" y="1518"/>
      <point x="254" y="1536" type="curve" smooth="yes"/>
      <point x="223" y="1545"/>
      <point x="184" y="1548"/>
      <point x="151" y="1544" type="curve" smooth="yes"/>
      <point x="143" y="1543" type="line"/>
      <point x="137" y="1531" type="line" smooth="yes"/>
      <point x="116" y="1490"/>
      <point x="107" y="1425"/>
      <point x="111" y="1348" type="curve" smooth="yes"/>
      <point x="114" y="1287"/>
      <point x="121" y="1238"/>
      <point x="142" y="1105" type="curve"/>
      <point x="161" y="994"/>
      <point x="167" y="954"/>
      <point x="172" y="901" type="curve" smooth="yes"/>
      <point x="180" y="827"/>
      <point x="182" y="765"/>
      <point x="177" y="703" type="curve" smooth="yes"/>
      <point x="176" y="688"/>
      <point x="175" y="675"/>
      <point x="175" y="674" type="curve" smooth="yes"/>
      <point x="175" y="671"/>
      <point x="175" y="671"/>
      <point x="183" y="677" type="curve" smooth="yes"/>
      <point x="202" y="693"/>
      <point x="224" y="706"/>
      <point x="249" y="719" type="curve" smooth="yes"/>
      <point x="275" y="732"/>
      <point x="293" y="738"/>
      <point x="310" y="740" type="curve" smooth="yes"/>
      <point x="321" y="741"/>
      <point x="323" y="741"/>
      <point x="333" y="729" type="curve" smooth="yes"/>
      <point x="400" y="653"/>
      <point x="462" y="553"/>
      <point x="492" y="471" type="curve" smooth="yes"/>
      <point x="506" y="433"/>
      <point x="516" y="391"/>
      <point x="521" y="350" type="curve" smooth="yes"/>
      <point x="523" y="331"/>
      <point x="523" y="280"/>
      <point x="521" y="264" type="curve" smooth="yes"/>
      <point x="519" y="247"/>
      <point x="515" y="224"/>
      <point x="512" y="211" type="curve" smooth="yes"/>
      <point x="499" y="159"/>
      <point x="475" y="115"/>
      <point x="440" y="78" type="curve" smooth="yes"/>
      <point x="381" y="17"/>
      <point x="279" y="-38"/>
      <point x="204" y="-51" type="curve" smooth="yes"/>
      <point x="141" y="-61"/>
      <point x="85" y="-52"/>
      <point x="44" y="-25" type="curve" smooth="yes"/>
      <point x="32" y="-17"/>
      <point x="15" y="0"/>
      <point x="6" y="13" type="curve" smooth="yes"/>
      <point x="-24" y="58"/>
      <point x="-36" y="123"/>
      <point x="-35" y="219" type="curve" smooth="yes"/>
      <point x="-34" y="279"/>
      <point x="-31" y="311"/>
      <point x="-12" y="477" type="curve" smooth="yes"/>
      <point x="5" y="626"/>
      <point x="7" y="679"/>
      <point x="0" y="764" type="curve" smooth="yes"/>
      <point x="-4" y="823"/>
      <point x="-12" y="879"/>
      <point x="-34" y="1011" type="curve" smooth="yes"/>
      <point x="-52" y="1125"/>
      <point x="-58" y="1166"/>
      <point x="-62" y="1218" type="curve" smooth="yes"/>
      <point x="-74" y="1350"/>
      <point x="-57" y="1435"/>
      <point x="-7" y="1497" type="curve" smooth="yes"/>
      <point x="23" y="1534"/>
      <point x="74" y="1573"/>
      <point x="132" y="1603" type="curve"/>
      <point x="193" y="1633"/>
      <point x="245" y="1649"/>
    </contour>
    <contour>
      <point x="181" y="602" type="curve" smooth="yes"/>
      <point x="175" y="610"/>
      <point x="170" y="616"/>
      <point x="169" y="616" type="curve"/>
      <point x="169" y="614" type="line"/>
      <point x="169" y="614"/>
      <point x="167" y="591"/>
      <point x="163" y="564" type="curve" smooth="yes"/>
      <point x="144" y="395"/>
      <point x="142" y="364"/>
      <point x="142" y="299" type="curve"/>
      <point x="141" y="254"/>
      <point x="142" y="242"/>
      <point x="147" y="212" type="curve" smooth="yes"/>
      <point x="158" y="131"/>
      <point x="191" y="82"/>
      <point x="246" y="64" type="curve" smooth="yes"/>
      <point x="262" y="59"/>
      <point x="288" y="55"/>
      <point x="305" y="55" type="curve" smooth="yes"/>
      <point x="310" y="55" type="line"/>
      <point x="317" y="69" type="line" smooth="yes"/>
      <point x="321" y="77"/>
      <point x="325" y="88"/>
      <point x="327" y="93" type="curve" smooth="yes"/>
      <point x="355" y="167"/>
      <point x="353" y="263"/>
      <point x="324" y="353" type="curve" smooth="yes"/>
      <point x="298" y="431"/>
      <point x="243" y="526"/>
    </contour>
  </outline>
</glyph>
<glyph name="I" format="1">
  <advance width="210"/>
  <unicode hex="0049"/>
  <outline>
    <contour>
      <point x="91" y="1653" type="curve" smooth="yes"/>
      <point x="99" y="1655"/>
      <point x="108" y="1655"/>
      <point x="255" y="1655" type="curve" smooth="yes"/>
      <point x="411" y="1655" type="line"/>
      <point x="414" y="1653" type="line" smooth="yes"/>
      <point x="422" y="1648"/>
      <point x="418" y="1638"/>
      <point x="402" y="1621" type="curve"/>
      <point x="380" y="1600"/>
      <point x="347" y="1578"/>
      <point x="311" y="1561" type="curve"/>
      <point x="298" y="1556"/>
      <point x="274" y="1547"/>
      <point x="270" y="1547" type="curve" smooth="yes"/>
      <point x="268" y="1547" type="line"/>
      <point x="268" y="801" type="line"/>
      <point x="268" y="55" type="line"/>
      <point x="339" y="55" type="line"/>
      <point x="411" y="55" type="line"/>
      <point x="414" y="53" type="line" smooth="yes"/>
      <point x="422" y="48"/>
      <point x="418" y="38"/>
      <point x="402" y="21" type="curve"/>
      <point x="375" y="-5"/>
      <point x="327" y="-34"/>
      <point x="287" y="-48" type="curve" smooth="yes"/>
      <point x="265" y="-55"/>
      <point x="277" y="-55"/>
      <point x="105" y="-55" type="curve" smooth="yes"/>
      <point x="-50" y="-55" type="line"/>
      <point x="-53" y="-53" type="line" smooth="yes"/>
      <point x="-61" y="-48"/>
      <point x="-57" y="-38"/>
      <point x="-42" y="-22" type="curve" smooth="yes"/>
      <point x="-21" y="-1"/>
      <point x="15" y="23"/>
      <point x="50" y="39" type="curve" smooth="yes"/>
      <point x="62" y="44"/>
      <point x="87" y="53"/>
      <point x="90" y="53" type="curve" smooth="yes"/>
      <point x="92" y="53"/>
      <point x="92" y="89"/>
      <point x="92" y="799" type="curve" smooth="yes"/>
      <point x="92" y="1545" type="line"/>
      <point x="21" y="1545" type="line"/>
      <point x="-50" y="1545" type="line"/>
      <point x="-53" y="1547" type="line" smooth="yes"/>
      <point x="-61" y="1552"/>
      <point x="-57" y="1562"/>
      <point x="-42" y="1578" type="curve" smooth="yes"/>
      <point x="-11" y="1609"/>
      <point x="51" y="1644"/>
    </contour>
  </outline>
</glyph>
<glyph name="J" format="1">
  <advance width="620"/>
  <unicode hex="004A"/>
  <outline>
    <contour>
      <point x="91" y="1653" type="curve" smooth="yes"/>
      <point x="99" y="1655"/>
      <point x="108" y="1655"/>
      <point x="255" y="1655" type="curve" smooth="yes"/>
      <point x="411" y="1655" type="line"/>
      <point x="414" y="1653" type="line"/>
      <point x="418" y="1650" type="line"/>
      <point x="418" y="1193" type="line"/>
      <point x="418" y="737" type="line"/>
      <point x="427" y="732" type="line"/>
      <point x="449" y="721"/>
      <point x="476" y="705"/>
      <point x="497" y="688" type="curve" smooth="yes"/>
      <point x="512" y="675"/>
      <point x="539" y="649"/>
      <point x="550" y="635" type="curve" smooth="yes"/>
      <point x="592" y="582"/>
      <point x="617" y="523"/>
      <point x="626" y="453" type="curve" smooth="yes"/>
      <point x="628" y="435"/>
      <point x="628" y="388"/>
      <point x="626" y="372" type="curve" smooth="yes"/>
      <point x="620" y="321"/>
      <point x="608" y="279"/>
      <point x="587" y="237" type="curve" smooth="yes"/>
      <point x="566" y="193"/>
      <point x="541" y="159"/>
      <point x="505" y="122" type="curve"/>
      <point x="483" y="101"/>
      <point x="470" y="89"/>
      <point x="446" y="72" type="curve" smooth="yes"/>
      <point x="357" y="5"/>
      <point x="255" y="-39"/>
      <point x="165" y="-51" type="curve" smooth="yes"/>
      <point x="62" y="-64"/>
      <point x="-28" y="-45"/>
      <point x="-104" y="5" type="curve" smooth="yes"/>
      <point x="-193" y="64"/>
      <point x="-251" y="161"/>
      <point x="-265" y="274" type="curve" smooth="yes"/>
      <point x="-267" y="296"/>
      <point x="-267" y="341"/>
      <point x="-264" y="363" type="curve" smooth="yes"/>
      <point x="-257" y="415"/>
      <point x="-243" y="459"/>
      <point x="-218" y="502" type="curve" smooth="yes"/>
      <point x="-172" y="583"/>
      <point x="-87" y="656"/>
      <point x="27" y="713" type="curve" smooth="yes"/>
      <point x="60" y="730"/>
      <point x="79" y="737"/>
      <point x="98" y="740" type="curve" smooth="yes"/>
      <point x="112" y="742"/>
      <point x="119" y="739"/>
      <point x="118" y="732" type="curve"/>
      <point x="118" y="714"/>
      <point x="73" y="677"/>
      <point x="20" y="651" type="curve" smooth="yes"/>
      <point x="6" y="644"/>
      <point x="-3" y="637"/>
      <point x="-17" y="620" type="curve" smooth="yes"/>
      <point x="-56" y="575"/>
      <point x="-80" y="518"/>
      <point x="-89" y="452" type="curve" smooth="yes"/>
      <point x="-91" y="432"/>
      <point x="-91" y="388"/>
      <point x="-89" y="368" type="curve" smooth="yes"/>
      <point x="-71" y="225"/>
      <point x="23" y="109"/>
      <point x="151" y="71" type="curve" smooth="yes"/>
      <point x="214" y="52"/>
      <point x="288" y="50"/>
      <point x="342" y="67" type="curve" smooth="yes"/>
      <point x="350" y="69"/>
      <point x="350" y="69"/>
      <point x="361" y="80" type="curve" smooth="yes"/>
      <point x="395" y="114"/>
      <point x="422" y="162"/>
      <point x="437" y="215" type="curve" smooth="yes"/>
      <point x="467" y="318"/>
      <point x="451" y="426"/>
      <point x="393" y="512" type="curve" smooth="yes"/>
      <point x="361" y="558"/>
      <point x="314" y="599"/>
      <point x="259" y="626" type="curve" smooth="yes"/>
      <point x="252" y="629"/>
      <point x="245" y="633"/>
      <point x="244" y="634" type="curve" smooth="yes"/>
      <point x="242" y="636" type="line"/>
      <point x="242" y="1091" type="line"/>
      <point x="242" y="1545" type="line"/>
      <point x="96" y="1545" type="line"/>
      <point x="-50" y="1545" type="line"/>
      <point x="-53" y="1547" type="line" smooth="yes"/>
      <point x="-61" y="1552"/>
      <point x="-57" y="1562"/>
      <point x="-42" y="1578" type="curve" smooth="yes"/>
      <point x="-11" y="1609"/>
      <point x="51" y="1644"/>
    </contour>
  </outline>
</glyph>
<glyph name="K" format="1">
  <advance width="635"/>
  <unicode hex="004B"/>
  <outline>
    <contour>
      <point x="171" y="1654" type="curve" smooth="yes"/>
      <point x="180" y="1656"/>
      <point x="186" y="1655"/>
      <point x="190" y="1653" type="curve" smooth="yes"/>
      <point x="194" y="1650" type="line"/>
      <point x="194" y="1416" type="line"/>
      <point x="195" y="1182" type="line"/>
      <point x="256" y="1369" type="line" smooth="yes"/>
      <point x="289" y="1472"/>
      <point x="318" y="1558"/>
      <point x="319" y="1561" type="curve" smooth="yes"/>
      <point x="323" y="1569"/>
      <point x="339" y="1585"/>
      <point x="352" y="1595" type="curve" smooth="yes"/>
      <point x="381" y="1618"/>
      <point x="417" y="1637"/>
      <point x="447" y="1648" type="curve" smooth="yes"/>
      <point x="477" y="1658"/>
      <point x="494" y="1657"/>
      <point x="492" y="1645" type="curve" smooth="yes"/>
      <point x="492" y="1643"/>
      <point x="425" y="1438"/>
      <point x="343" y="1189" type="curve"/>
      <point x="262" y="939"/>
      <point x="195" y="734"/>
      <point x="195" y="733" type="curve" smooth="yes"/>
      <point x="195" y="731"/>
      <point x="262" y="578"/>
      <point x="343" y="391" type="curve" smooth="yes"/>
      <point x="425" y="204"/>
      <point x="492" y="50"/>
      <point x="492" y="49" type="curve" smooth="yes"/>
      <point x="494" y="43"/>
      <point x="488" y="33"/>
      <point x="475" y="20" type="curve" smooth="yes"/>
      <point x="440" y="-14"/>
      <point x="368" y="-52"/>
      <point x="333" y="-55" type="curve" smooth="yes"/>
      <point x="323" y="-55"/>
      <point x="319" y="-54"/>
      <point x="316" y="-47" type="curve" smooth="yes"/>
      <point x="315" y="-45"/>
      <point x="287" y="18"/>
      <point x="254" y="94" type="curve" smooth="yes"/>
      <point x="195" y="231" type="line"/>
      <point x="194" y="136" type="line"/>
      <point x="194" y="42" type="line"/>
      <point x="191" y="37" type="line" smooth="yes"/>
      <point x="186" y="29"/>
      <point x="168" y="12"/>
      <point x="155" y="2" type="curve" smooth="yes"/>
      <point x="101" y="-39"/>
      <point x="28" y="-67"/>
      <point x="19" y="-50" type="curve" smooth="yes"/>
      <point x="18" y="-49"/>
      <point x="18" y="206"/>
      <point x="18" y="754" type="curve" smooth="yes"/>
      <point x="18" y="1556" type="line"/>
      <point x="21" y="1562" type="line"/>
      <point x="38" y="1593"/>
      <point x="124" y="1646"/>
    </contour>
  </outline>
</glyph>
<glyph name="L" format="1">
  <advance width="635"/>
  <unicode hex="004C"/>
  <outline>
    <contour>
      <point x="171" y="1654" type="curve" smooth="yes"/>
      <point x="180" y="1656"/>
      <point x="186" y="1655"/>
      <point x="190" y="1653" type="curve" smooth="yes"/>
      <point x="194" y="1650" type="line"/>
      <point x="194" y="853" type="line"/>
      <point x="194" y="55" type="line"/>
      <point x="339" y="55" type="line" smooth="yes"/>
      <point x="444" y="55"/>
      <point x="485" y="55"/>
      <point x="487" y="54" type="curve" smooth="yes"/>
      <point x="492" y="52"/>
      <point x="493" y="48"/>
      <point x="492" y="42" type="curve" smooth="yes"/>
      <point x="484" y="16"/>
      <point x="405" y="-36"/>
      <point x="350" y="-52" type="curve"/>
      <point x="341" y="-54" type="line"/>
      <point x="184" y="-55" type="line" smooth="yes"/>
      <point x="66" y="-55"/>
      <point x="26" y="-55"/>
      <point x="24" y="-54" type="curve" smooth="yes"/>
      <point x="22" y="-53"/>
      <point x="20" y="-52"/>
      <point x="19" y="-51" type="curve" smooth="yes"/>
      <point x="18" y="-49"/>
      <point x="18" y="52"/>
      <point x="18" y="754" type="curve" smooth="yes"/>
      <point x="18" y="1556" type="line"/>
      <point x="21" y="1562" type="line"/>
      <point x="38" y="1593"/>
      <point x="124" y="1646"/>
    </contour>
  </outline>
</glyph>
<glyph name="M" format="1">
  <advance width="810"/>
  <unicode hex="004D"/>
  <outline>
    <contour>
      <point x="171" y="1654" type="curve" smooth="yes"/>
      <point x="180" y="1656"/>
      <point x="186" y="1655"/>
      <point x="190" y="1653" type="curve"/>
      <point x="193" y="1650" type="line"/>
      <point x="228" y="1439" type="line" smooth="yes"/>
      <point x="247" y="1323"/>
      <point x="263" y="1228"/>
      <point x="263" y="1228" type="curve" smooth="yes"/>
      <point x="263" y="1227"/>
      <point x="276" y="1301"/>
      <point x="290" y="1392" type="curve"/>
      <point x="321" y="1579"/>
      <point x="317" y="1562"/>
      <point x="331" y="1576" type="curve" smooth="yes"/>
      <point x="364" y="1611"/>
      <point x="440" y="1652"/>
      <point x="477" y="1655" type="curve" smooth="yes"/>
      <point x="485" y="1655"/>
      <point x="486" y="1655"/>
      <point x="489" y="1653" type="curve" smooth="yes"/>
      <point x="493" y="1650" type="line"/>
      <point x="493" y="847" type="line"/>
      <point x="493" y="44" type="line"/>
      <point x="490" y="38" type="line" smooth="yes"/>
      <point x="487" y="31"/>
      <point x="469" y="13"/>
      <point x="454" y="2" type="curve" smooth="yes"/>
      <point x="399" y="-39"/>
      <point x="327" y="-67"/>
      <point x="318" y="-50" type="curve" smooth="yes"/>
      <point x="317" y="-49"/>
      <point x="317" y="71"/>
      <point x="317" y="324" type="curve" smooth="yes"/>
      <point x="317" y="697" type="line"/>
      <point x="309" y="691" type="line" smooth="yes"/>
      <point x="300" y="684"/>
      <point x="277" y="668"/>
      <point x="266" y="662" type="curve" smooth="yes"/>
      <point x="243" y="649"/>
      <point x="217" y="638"/>
      <point x="198" y="633" type="curve" smooth="yes"/>
      <point x="194" y="632" type="line"/>
      <point x="194" y="338" type="line"/>
      <point x="194" y="44" type="line"/>
      <point x="191" y="38" type="line" smooth="yes"/>
      <point x="188" y="31"/>
      <point x="170" y="13"/>
      <point x="155" y="2" type="curve" smooth="yes"/>
      <point x="100" y="-39"/>
      <point x="28" y="-67"/>
      <point x="19" y="-50" type="curve" smooth="yes"/>
      <point x="18" y="-49"/>
      <point x="18" y="206"/>
      <point x="18" y="754" type="curve" smooth="yes"/>
      <point x="18" y="1556" type="line"/>
      <point x="21" y="1562" type="line"/>
      <point x="38" y="1593"/>
      <point x="124" y="1646"/>
    </contour>
  </outline>
</glyph>
<glyph name="N" format="1">
  <advance width="710"/>
  <unicode hex="004E"/>
  <outline>
    <contour>
      <point x="171" y="1654" type="curve" smooth="yes"/>
      <point x="180" y="1656"/>
      <point x="186" y="1655"/>
      <point x="190" y="1653" type="curve" smooth="yes"/>
      <point x="193" y="1651" type="line"/>
      <point x="255" y="1321" type="line"/>
      <point x="317" y="991" type="line"/>
      <point x="317" y="1273" type="line"/>
      <point x="317" y="1556" type="line"/>
      <point x="320" y="1562" type="line" smooth="yes"/>
      <point x="338" y="1596"/>
      <point x="433" y="1652"/>
      <point x="477" y="1655" type="curve" smooth="yes"/>
      <point x="485" y="1655"/>
      <point x="486" y="1655"/>
      <point x="489" y="1653" type="curve" smooth="yes"/>
      <point x="493" y="1650" type="line"/>
      <point x="493" y="847" type="line"/>
      <point x="493" y="44" type="line"/>
      <point x="490" y="38" type="line" smooth="yes"/>
      <point x="487" y="31"/>
      <point x="469" y="13"/>
      <point x="454" y="2" type="curve" smooth="yes"/>
      <point x="412" y="-30"/>
      <point x="356" y="-55"/>
      <point x="330" y="-55" type="curve" smooth="yes"/>
      <point x="324" y="-55"/>
      <point x="318" y="-52"/>
      <point x="317" y="-49" type="curve" smooth="yes"/>
      <point x="317" y="-48"/>
      <point x="289" y="101"/>
      <point x="256" y="282" type="curve"/>
      <point x="194" y="610" type="line"/>
      <point x="194" y="327" type="line"/>
      <point x="194" y="44" type="line"/>
      <point x="191" y="38" type="line" smooth="yes"/>
      <point x="188" y="31"/>
      <point x="170" y="13"/>
      <point x="155" y="2" type="curve" smooth="yes"/>
      <point x="100" y="-39"/>
      <point x="28" y="-67"/>
      <point x="19" y="-50" type="curve" smooth="yes"/>
      <point x="18" y="-49"/>
      <point x="18" y="206"/>
      <point x="18" y="754" type="curve" smooth="yes"/>
      <point x="18" y="1556" type="line"/>
      <point x="21" y="1562" type="line"/>
      <point x="38" y="1593"/>
      <point x="124" y="1646"/>
    </contour>
  </outline>
</glyph>
<glyph name="O" format="1">
  <advance width="680"/>
  <unicode hex="004F"/>
  <outline>
    <contour>
      <point x="291" y="1717" type="curve" smooth="yes"/>
      <point x="303" y="1718"/>
      <point x="328" y="1718"/>
      <point x="340" y="1717" type="curve" smooth="yes"/>
      <point x="416" y="1709"/>
      <point x="482" y="1663"/>
      <point x="516" y="1593" type="curve" smooth="yes"/>
      <point x="532" y="1561"/>
      <point x="540" y="1526"/>
      <point x="542" y="1483" type="curve"/>
      <point x="543" y="1432"/>
      <point x="534" y="1372"/>
      <point x="512" y="1296" type="curve" smooth="yes"/>
      <point x="505" y="1272"/>
      <point x="501" y="1260"/>
      <point x="484" y="1208" type="curve" smooth="yes"/>
      <point x="468" y="1156"/>
      <point x="462" y="1137"/>
      <point x="454" y="1107" type="curve" smooth="yes"/>
      <point x="435" y="1037"/>
      <point x="422" y="965"/>
      <point x="417" y="900" type="curve" smooth="yes"/>
      <point x="405" y="766"/>
      <point x="421" y="644"/>
      <point x="465" y="535" type="curve" smooth="yes"/>
      <point x="482" y="494"/>
      <point x="496" y="466"/>
      <point x="542" y="385" type="curve" smooth="yes"/>
      <point x="567" y="341"/>
      <point x="579" y="319"/>
      <point x="590" y="297" type="curve" smooth="yes"/>
      <point x="650" y="177"/>
      <point x="658" y="92"/>
      <point x="619" y="-7" type="curve" smooth="yes"/>
      <point x="609" y="-30"/>
      <point x="594" y="-59"/>
      <point x="579" y="-80" type="curve" smooth="yes"/>
      <point x="541" y="-133"/>
      <point x="483" y="-182"/>
      <point x="411" y="-223" type="curve" smooth="yes"/>
      <point x="321" y="-275"/>
      <point x="236" y="-299"/>
      <point x="154" y="-297" type="curve" smooth="yes"/>
      <point x="103" y="-295"/>
      <point x="61" y="-285"/>
      <point x="15" y="-264" type="curve"/>
      <point x="-77" y="-219"/>
      <point x="-141" y="-134"/>
      <point x="-159" y="-30" type="curve" smooth="yes"/>
      <point x="-170" y="32"/>
      <point x="-159" y="98"/>
      <point x="-124" y="176" type="curve" smooth="yes"/>
      <point x="-109" y="208"/>
      <point x="-93" y="239"/>
      <point x="-55" y="306" type="curve" smooth="yes"/>
      <point x="-29" y="352"/>
      <point x="-25" y="359"/>
      <point x="-13" y="382" type="curve" smooth="yes"/>
      <point x="14" y="434"/>
      <point x="33" y="485"/>
      <point x="46" y="540" type="curve" smooth="yes"/>
      <point x="80" y="683"/>
      <point x="72" y="848"/>
      <point x="23" y="1027" type="curve" smooth="yes"/>
      <point x="16" y="1051"/>
      <point x="11" y="1069"/>
      <point x="-1" y="1104" type="curve" smooth="yes"/>
      <point x="-30" y="1193"/>
      <point x="-42" y="1237"/>
      <point x="-51" y="1284" type="curve" smooth="yes"/>
      <point x="-58" y="1318"/>
      <point x="-61" y="1340"/>
      <point x="-62" y="1370" type="curve" smooth="yes"/>
      <point x="-63" y="1423"/>
      <point x="-54" y="1465"/>
      <point x="-33" y="1507" type="curve" smooth="yes"/>
      <point x="-9" y="1556"/>
      <point x="33" y="1599"/>
      <point x="95" y="1639" type="curve"/>
      <point x="161" y="1683"/>
      <point x="231" y="1711"/>
    </contour>
    <contour>
      <point x="184" y="1607" type="curve" smooth="yes"/>
      <point x="178" y="1607"/>
      <point x="168" y="1608"/>
      <point x="162" y="1608" type="curve" smooth="yes"/>
      <point x="152" y="1608" type="line"/>
      <point x="150" y="1605" type="line"/>
      <point x="134" y="1583"/>
      <point x="122" y="1549"/>
      <point x="116" y="1513" type="curve" smooth="yes"/>
      <point x="114" y="1499"/>
      <point x="114" y="1452"/>
      <point x="116" y="1435" type="curve" smooth="yes"/>
      <point x="123" y="1373"/>
      <point x="136" y="1321"/>
      <point x="174" y="1203" type="curve" smooth="yes"/>
      <point x="216" y="1074"/>
      <point x="237" y="971"/>
      <point x="242" y="862" type="curve" smooth="yes"/>
      <point x="243" y="850"/>
      <point x="243" y="840"/>
      <point x="243" y="839" type="curve" smooth="yes"/>
      <point x="243" y="838"/>
      <point x="244" y="846"/>
      <point x="246" y="856" type="curve" smooth="yes"/>
      <point x="253" y="910"/>
      <point x="264" y="967"/>
      <point x="279" y="1021" type="curve" smooth="yes"/>
      <point x="287" y="1051"/>
      <point x="293" y="1070"/>
      <point x="309" y="1122" type="curve"/>
      <point x="332" y="1190"/>
      <point x="338" y="1212"/>
      <point x="347" y="1248" type="curve" smooth="yes"/>
      <point x="355" y="1282"/>
      <point x="361" y="1311"/>
      <point x="364" y="1342" type="curve" smooth="yes"/>
      <point x="366" y="1357"/>
      <point x="366" y="1403"/>
      <point x="364" y="1416" type="curve" smooth="yes"/>
      <point x="355" y="1488"/>
      <point x="319" y="1546"/>
      <point x="262" y="1581" type="curve" smooth="yes"/>
      <point x="239" y="1594"/>
      <point x="213" y="1603"/>
    </contour>
    <contour>
      <point x="239" y="667" type="curve" smooth="yes"/>
      <point x="238" y="677"/>
      <point x="238" y="692"/>
      <point x="237" y="699" type="curve" smooth="yes"/>
      <point x="237" y="706"/>
      <point x="236" y="711"/>
      <point x="236" y="710" type="curve" smooth="yes"/>
      <point x="236" y="708"/>
      <point x="235" y="699"/>
      <point x="233" y="690" type="curve" smooth="yes"/>
      <point x="221" y="607"/>
      <point x="198" y="537"/>
      <point x="159" y="461" type="curve" smooth="yes"/>
      <point x="146" y="435"/>
      <point x="140" y="426"/>
      <point x="111" y="373" type="curve"/>
      <point x="63" y="289"/>
      <point x="46" y="255"/>
      <point x="32" y="214" type="curve" smooth="yes"/>
      <point x="6" y="137"/>
      <point x="7" y="74"/>
      <point x="35" y="2" type="curve" smooth="yes"/>
      <point x="73" y="-93"/>
      <point x="152" y="-159"/>
      <point x="252" y="-180" type="curve" smooth="yes"/>
      <point x="277" y="-185"/>
      <point x="290" y="-186"/>
      <point x="317" y="-186" type="curve" smooth="yes"/>
      <point x="344" y="-186"/>
      <point x="354" y="-185"/>
      <point x="376" y="-180" type="curve" smooth="yes"/>
      <point x="389" y="-177" type="line"/>
      <point x="396" y="-169" type="line" smooth="yes"/>
      <point x="411" y="-152"/>
      <point x="422" y="-136"/>
      <point x="434" y="-115" type="curve"/>
      <point x="444" y="-94"/>
      <point x="453" y="-70"/>
      <point x="459" y="-47" type="curve" smooth="yes"/>
      <point x="475" y="18"/>
      <point x="466" y="85"/>
      <point x="430" y="167" type="curve" smooth="yes"/>
      <point x="416" y="198"/>
      <point x="402" y="225"/>
      <point x="367" y="286" type="curve" smooth="yes"/>
      <point x="321" y="367"/>
      <point x="307" y="395"/>
      <point x="290" y="436" type="curve" smooth="yes"/>
      <point x="262" y="507"/>
      <point x="244" y="588"/>
    </contour>
  </outline>
</glyph>
<glyph name="P" format="1">
  <advance width="650"/>
  <unicode hex="0050"/>
  <outline>
    <contour>
      <point x="171" y="1654" type="curve" smooth="yes"/>
      <point x="182" y="1656"/>
      <point x="185" y="1655"/>
      <point x="201" y="1648" type="curve" smooth="yes"/>
      <point x="349" y="1580"/>
      <point x="455" y="1442"/>
      <point x="485" y="1282" type="curve" smooth="yes"/>
      <point x="511" y="1138"/>
      <point x="475" y="992"/>
      <point x="385" y="874" type="curve" smooth="yes"/>
      <point x="341" y="815"/>
      <point x="287" y="766"/>
      <point x="216" y="718" type="curve"/>
      <point x="194" y="704" type="line"/>
      <point x="194" y="374" type="line"/>
      <point x="194" y="44" type="line"/>
      <point x="191" y="38" type="line" smooth="yes"/>
      <point x="188" y="31"/>
      <point x="170" y="13"/>
      <point x="155" y="2" type="curve" smooth="yes"/>
      <point x="100" y="-39"/>
      <point x="28" y="-67"/>
      <point x="19" y="-50" type="curve" smooth="yes"/>
      <point x="18" y="-49"/>
      <point x="18" y="206"/>
      <point x="18" y="754" type="curve" smooth="yes"/>
      <point x="18" y="1556" type="line"/>
      <point x="21" y="1562" type="line"/>
      <point x="38" y="1593"/>
      <point x="124" y="1646"/>
    </contour>
    <contour>
      <point x="218" y="1393" type="curve" smooth="yes"/>
      <point x="213" y="1400"/>
      <point x="205" y="1409"/>
      <point x="201" y="1414" type="curve" smooth="yes"/>
      <point x="194" y="1422" type="line"/>
      <point x="194" y="1099" type="line"/>
      <point x="194" y="776" type="line"/>
      <point x="202" y="785" type="line" smooth="yes"/>
      <point x="228" y="814"/>
      <point x="255" y="855"/>
      <point x="272" y="893" type="curve" smooth="yes"/>
      <point x="295" y="942"/>
      <point x="309" y="992"/>
      <point x="315" y="1048" type="curve" smooth="yes"/>
      <point x="317" y="1071"/>
      <point x="317" y="1122"/>
      <point x="315" y="1145" type="curve" smooth="yes"/>
      <point x="305" y="1237"/>
      <point x="272" y="1321"/>
    </contour>
  </outline>
</glyph>
<glyph name="Q" format="1">
  <advance width="680"/>
  <unicode hex="0051"/>
  <outline>
    <contour>
      <point x="292" y="1893" type="curve" smooth="yes"/>
      <point x="301" y="1894"/>
      <point x="348" y="1893"/>
      <point x="360" y="1892" type="curve" smooth="yes"/>
      <point x="412" y="1885"/>
      <point x="462" y="1866"/>
      <point x="504" y="1838" type="curve" smooth="yes"/>
      <point x="535" y="1818"/>
      <point x="564" y="1789"/>
      <point x="586" y="1758" type="curve" smooth="yes"/>
      <point x="614" y="1718"/>
      <point x="634" y="1667"/>
      <point x="642" y="1617" type="curve" smooth="yes"/>
      <point x="644" y="1602"/>
      <point x="644" y="1574"/>
      <point x="643" y="1558" type="curve" smooth="yes"/>
      <point x="638" y="1501"/>
      <point x="620" y="1447"/>
      <point x="580" y="1370" type="curve" smooth="yes"/>
      <point x="570" y="1350"/>
      <point x="556" y="1326"/>
      <point x="528" y="1277" type="curve" smooth="yes"/>
      <point x="481" y="1195"/>
      <point x="461" y="1156"/>
      <point x="442" y="1104" type="curve" smooth="yes"/>
      <point x="400" y="987"/>
      <point x="387" y="864"/>
      <point x="405" y="740" type="curve" smooth="yes"/>
      <point x="407" y="723"/>
      <point x="411" y="697"/>
      <point x="413" y="693" type="curve" smooth="yes"/>
      <point x="413" y="692"/>
      <point x="417" y="688"/>
      <point x="422" y="685" type="curve" smooth="yes"/>
      <point x="451" y="665"/>
      <point x="475" y="645"/>
      <point x="501" y="619" type="curve" smooth="yes"/>
      <point x="530" y="590"/>
      <point x="548" y="568"/>
      <point x="570" y="535" type="curve" smooth="yes"/>
      <point x="587" y="510"/>
      <point x="595" y="495"/>
      <point x="608" y="470" type="curve" smooth="yes"/>
      <point x="647" y="389"/>
      <point x="667" y="300"/>
      <point x="665" y="212" type="curve" smooth="yes"/>
      <point x="663" y="155"/>
      <point x="655" y="107"/>
      <point x="637" y="50" type="curve" smooth="yes"/>
      <point x="624" y="6"/>
      <point x="620" y="-6"/>
      <point x="608" y="-29" type="curve" smooth="yes"/>
      <point x="596" y="-54"/>
      <point x="586" y="-68"/>
      <point x="560" y="-103" type="curve" smooth="yes"/>
      <point x="523" y="-151"/>
      <point x="487" y="-188"/>
      <point x="447" y="-221" type="curve" smooth="yes"/>
      <point x="427" y="-237"/>
      <point x="396" y="-256"/>
      <point x="372" y="-266" type="curve"/>
      <point x="347" y="-278"/>
      <point x="333" y="-282"/>
      <point x="319" y="-283" type="curve" smooth="yes"/>
      <point x="309" y="-283"/>
      <point x="308" y="-283"/>
      <point x="305" y="-280" type="curve" smooth="yes"/>
      <point x="302" y="-278"/>
      <point x="302" y="-277"/>
      <point x="302" y="-274" type="curve" smooth="yes"/>
      <point x="303" y="-271"/>
      <point x="303" y="-270"/>
      <point x="301" y="-270" type="curve" smooth="yes"/>
      <point x="297" y="-272"/>
      <point x="272" y="-279"/>
      <point x="261" y="-282" type="curve" smooth="yes"/>
      <point x="247" y="-286"/>
      <point x="220" y="-290"/>
      <point x="203" y="-292" type="curve" smooth="yes"/>
      <point x="185" y="-294"/>
      <point x="137" y="-294"/>
      <point x="121" y="-292" type="curve" smooth="yes"/>
      <point x="68" y="-285"/>
      <point x="18" y="-266"/>
      <point x="-24" y="-238" type="curve" smooth="yes"/>
      <point x="-55" y="-218"/>
      <point x="-84" y="-189"/>
      <point x="-106" y="-158" type="curve" smooth="yes"/>
      <point x="-134" y="-118"/>
      <point x="-154" y="-67"/>
      <point x="-162" y="-16" type="curve" smooth="yes"/>
      <point x="-164" y="-2"/>
      <point x="-164" y="26"/>
      <point x="-163" y="42" type="curve" smooth="yes"/>
      <point x="-158" y="99"/>
      <point x="-140" y="153"/>
      <point x="-100" y="230" type="curve" smooth="yes"/>
      <point x="-90" y="250"/>
      <point x="-76" y="274"/>
      <point x="-48" y="323" type="curve" smooth="yes"/>
      <point x="-1" y="405"/>
      <point x="19" y="444"/>
      <point x="38" y="496" type="curve" smooth="yes"/>
      <point x="101" y="670"/>
      <point x="98" y="862"/>
      <point x="30" y="1033" type="curve" smooth="yes"/>
      <point x="11" y="1081"/>
      <point x="-7" y="1115"/>
      <point x="-56" y="1199" type="curve" smooth="yes"/>
      <point x="-88" y="1254"/>
      <point x="-99" y="1275"/>
      <point x="-115" y="1306" type="curve"/>
      <point x="-139" y="1357"/>
      <point x="-152" y="1395"/>
      <point x="-159" y="1436" type="curve" smooth="yes"/>
      <point x="-167" y="1479"/>
      <point x="-165" y="1518"/>
      <point x="-155" y="1559" type="curve"/>
      <point x="-129" y="1655"/>
      <point x="-68" y="1733"/>
      <point x="36" y="1800" type="curve" smooth="yes"/>
      <point x="116" y="1852"/>
      <point x="202" y="1885"/>
      <point x="277" y="1892" type="curve" smooth="yes"/>
      <point x="283" y="1893"/>
      <point x="290" y="1893"/>
    </contour>
    <contour>
      <point x="201" y="1782" type="curve" smooth="yes"/>
      <point x="190" y="1783"/>
      <point x="153" y="1784"/>
      <point x="144" y="1783" type="curve" smooth="yes"/>
      <point x="132" y="1782"/>
      <point x="116" y="1780"/>
      <point x="104" y="1777" type="curve" smooth="yes"/>
      <point x="91" y="1774" type="line"/>
      <point x="83" y="1765" type="line" smooth="yes"/>
      <point x="53" y="1732"/>
      <point x="32" y="1690"/>
      <point x="20" y="1641" type="curve" smooth="yes"/>
      <point x="15" y="1622"/>
      <point x="13" y="1609"/>
      <point x="12" y="1589" type="curve" smooth="yes"/>
      <point x="10" y="1534"/>
      <point x="25" y="1478"/>
      <point x="60" y="1405" type="curve"/>
      <point x="76" y="1374"/>
      <point x="87" y="1353"/>
      <point x="119" y="1298" type="curve" smooth="yes"/>
      <point x="149" y="1247"/>
      <point x="159" y="1229"/>
      <point x="173" y="1203" type="curve" smooth="yes"/>
      <point x="208" y="1134"/>
      <point x="232" y="1062"/>
      <point x="246" y="987" type="curve" smooth="yes"/>
      <point x="248" y="978"/>
      <point x="249" y="969"/>
      <point x="250" y="968" type="curve"/>
      <point x="250" y="966"/>
      <point x="252" y="970"/>
      <point x="255" y="982" type="curve" smooth="yes"/>
      <point x="268" y="1023"/>
      <point x="285" y="1067"/>
      <point x="307" y="1109" type="curve" smooth="yes"/>
      <point x="319" y="1134"/>
      <point x="332" y="1158"/>
      <point x="363" y="1211" type="curve" smooth="yes"/>
      <point x="397" y="1269"/>
      <point x="403" y="1281"/>
      <point x="419" y="1312" type="curve" smooth="yes"/>
      <point x="438" y="1351"/>
      <point x="450" y="1381"/>
      <point x="458" y="1413" type="curve" smooth="yes"/>
      <point x="474" y="1476"/>
      <point x="471" y="1531"/>
      <point x="446" y="1593" type="curve" smooth="yes"/>
      <point x="430" y="1634"/>
      <point x="409" y="1667"/>
      <point x="378" y="1697" type="curve" smooth="yes"/>
      <point x="331" y="1744"/>
      <point x="272" y="1772"/>
    </contour>
    <contour>
      <point x="231" y="594" type="line" smooth="yes"/>
      <point x="227" y="596"/>
      <point x="223" y="599"/>
      <point x="221" y="600" type="curve" smooth="yes"/>
      <point x="219" y="601"/>
      <point x="219" y="601"/>
      <point x="219" y="598" type="curve" smooth="yes"/>
      <point x="217" y="592"/>
      <point x="202" y="552"/>
      <point x="194" y="535" type="curve" smooth="yes"/>
      <point x="178" y="497"/>
      <point x="160" y="463"/>
      <point x="117" y="389" type="curve" smooth="yes"/>
      <point x="83" y="331"/>
      <point x="77" y="319"/>
      <point x="61" y="288" type="curve" smooth="yes"/>
      <point x="42" y="249"/>
      <point x="30" y="219"/>
      <point x="22" y="188" type="curve" smooth="yes"/>
      <point x="6" y="124"/>
      <point x="9" y="69"/>
      <point x="34" y="8" type="curve"/>
      <point x="50" y="-34"/>
      <point x="71" y="-67"/>
      <point x="102" y="-97" type="curve" smooth="yes"/>
      <point x="150" y="-145"/>
      <point x="209" y="-173"/>
      <point x="284" y="-182" type="curve" smooth="yes"/>
      <point x="289" y="-183"/>
      <point x="304" y="-183"/>
      <point x="318" y="-183" type="curve" smooth="yes"/>
      <point x="344" y="-183"/>
      <point x="355" y="-182"/>
      <point x="376" y="-177" type="curve" smooth="yes"/>
      <point x="389" y="-174" type="line"/>
      <point x="396" y="-166" type="line" smooth="yes"/>
      <point x="417" y="-143"/>
      <point x="452" y="-74"/>
      <point x="461" y="-38" type="curve" smooth="yes"/>
      <point x="469" y="-7"/>
      <point x="470" y="30"/>
      <point x="464" y="67" type="curve" smooth="yes"/>
      <point x="458" y="105"/>
      <point x="444" y="145"/>
      <point x="420" y="195" type="curve"/>
      <point x="404" y="226"/>
      <point x="393" y="247"/>
      <point x="361" y="302" type="curve" smooth="yes"/>
      <point x="331" y="353"/>
      <point x="321" y="371"/>
      <point x="307" y="398" type="curve" smooth="yes"/>
      <point x="278" y="455"/>
      <point x="256" y="514"/>
      <point x="242" y="575" type="curve" smooth="yes"/>
      <point x="239" y="589" type="line"/>
    </contour>
  </outline>
</glyph>
<glyph name="R" format="1">
  <advance width="665"/>
  <unicode hex="0052"/>
  <outline>
    <contour>
      <point x="171" y="1654" type="curve" smooth="yes"/>
      <point x="182" y="1656"/>
      <point x="185" y="1655"/>
      <point x="201" y="1648" type="curve" smooth="yes"/>
      <point x="349" y="1580"/>
      <point x="455" y="1442"/>
      <point x="485" y="1282" type="curve" smooth="yes"/>
      <point x="511" y="1138"/>
      <point x="475" y="992"/>
      <point x="385" y="874" type="curve" smooth="yes"/>
      <point x="342" y="817"/>
      <point x="288" y="766"/>
      <point x="222" y="722" type="curve" smooth="yes"/>
      <point x="212" y="716"/>
      <point x="204" y="711"/>
      <point x="204" y="710" type="curve" smooth="yes"/>
      <point x="204" y="710"/>
      <point x="269" y="561"/>
      <point x="348" y="379" type="curve" smooth="yes"/>
      <point x="428" y="197"/>
      <point x="493" y="47"/>
      <point x="493" y="46" type="curve" smooth="yes"/>
      <point x="493" y="34"/>
      <point x="465" y="8"/>
      <point x="431" y="-14" type="curve" smooth="yes"/>
      <point x="387" y="-42"/>
      <point x="336" y="-61"/>
      <point x="322" y="-53" type="curve" smooth="yes"/>
      <point x="320" y="-53"/>
      <point x="318" y="-50"/>
      <point x="317" y="-47" type="curve"/>
      <point x="315" y="-45"/>
      <point x="287" y="19"/>
      <point x="254" y="95" type="curve" smooth="yes"/>
      <point x="195" y="232" type="line"/>
      <point x="194" y="137" type="line"/>
      <point x="194" y="42" type="line"/>
      <point x="191" y="37" type="line" smooth="yes"/>
      <point x="186" y="29"/>
      <point x="168" y="12"/>
      <point x="155" y="2" type="curve" smooth="yes"/>
      <point x="101" y="-39"/>
      <point x="28" y="-67"/>
      <point x="19" y="-50" type="curve" smooth="yes"/>
      <point x="18" y="-49"/>
      <point x="18" y="206"/>
      <point x="18" y="754" type="curve" smooth="yes"/>
      <point x="18" y="1556" type="line"/>
      <point x="21" y="1562" type="line"/>
      <point x="38" y="1593"/>
      <point x="124" y="1646"/>
    </contour>
    <contour>
      <point x="218" y="1393" type="curve" smooth="yes"/>
      <point x="213" y="1400"/>
      <point x="205" y="1409"/>
      <point x="201" y="1414" type="curve" smooth="yes"/>
      <point x="194" y="1422" type="line"/>
      <point x="194" y="1099" type="line"/>
      <point x="194" y="776" type="line"/>
      <point x="202" y="785" type="line" smooth="yes"/>
      <point x="228" y="814"/>
      <point x="255" y="855"/>
      <point x="272" y="893" type="curve" smooth="yes"/>
      <point x="295" y="942"/>
      <point x="309" y="992"/>
      <point x="315" y="1048" type="curve" smooth="yes"/>
      <point x="317" y="1071"/>
      <point x="317" y="1122"/>
      <point x="315" y="1145" type="curve" smooth="yes"/>
      <point x="305" y="1237"/>
      <point x="272" y="1321"/>
    </contour>
  </outline>
</glyph>
<glyph name="S" format="1">
  <advance width="620"/>
  <unicode hex="0053"/>
  <outline>
    <contour>
      <point x="236" y="2214" type="curve" smooth="yes"/>
      <point x="238" y="2215"/>
      <point x="259" y="2215"/>
      <point x="282" y="2214" type="curve"/>
      <point x="325" y="2214"/>
      <point x="334" y="2214"/>
      <point x="367" y="2209" type="curve" smooth="yes"/>
      <point x="423" y="2201"/>
      <point x="478" y="2184"/>
      <point x="531" y="2158" type="curve" smooth="yes"/>
      <point x="556" y="2146"/>
      <point x="569" y="2138"/>
      <point x="590" y="2125" type="curve" smooth="yes"/>
      <point x="666" y="2075"/>
      <point x="727" y="2005"/>
      <point x="768" y="1922" type="curve" smooth="yes"/>
      <point x="797" y="1862"/>
      <point x="817" y="1794"/>
      <point x="827" y="1720" type="curve" smooth="yes"/>
      <point x="833" y="1682"/>
      <point x="833" y="1668"/>
      <point x="833" y="1627" type="curve" smooth="yes"/>
      <point x="833" y="1585"/>
      <point x="832" y="1573"/>
      <point x="826" y="1542" type="curve" smooth="yes"/>
      <point x="809" y="1449"/>
      <point x="764" y="1366"/>
      <point x="694" y="1295" type="curve" smooth="yes"/>
      <point x="661" y="1261"/>
      <point x="627" y="1233"/>
      <point x="585" y="1205" type="curve" smooth="yes"/>
      <point x="493" y="1144"/>
      <point x="398" y="1105"/>
      <point x="308" y="1090" type="curve" smooth="yes"/>
      <point x="289" y="1087"/>
      <point x="280" y="1087"/>
      <point x="275" y="1090" type="curve" smooth="yes"/>
      <point x="272" y="1092"/>
      <point x="272" y="1092"/>
      <point x="272" y="1096" type="curve" smooth="yes"/>
      <point x="272" y="1103"/>
      <point x="277" y="1110"/>
      <point x="288" y="1122" type="curve"/>
      <point x="315" y="1148"/>
      <point x="364" y="1178"/>
      <point x="404" y="1191" type="curve" smooth="yes"/>
      <point x="412" y="1194"/>
      <point x="421" y="1196"/>
      <point x="432" y="1198" type="curve" smooth="yes"/>
      <point x="465" y="1203"/>
      <point x="492" y="1210"/>
      <point x="508" y="1218" type="curve" smooth="yes"/>
      <point x="519" y="1223"/>
      <point x="530" y="1232"/>
      <point x="546" y="1248" type="curve" smooth="yes"/>
      <point x="599" y="1301"/>
      <point x="637" y="1375"/>
      <point x="651" y="1456" type="curve" smooth="yes"/>
      <point x="657" y="1485"/>
      <point x="658" y="1495"/>
      <point x="657" y="1535" type="curve" smooth="yes"/>
      <point x="657" y="1574"/>
      <point x="656" y="1589"/>
      <point x="651" y="1626" type="curve" smooth="yes"/>
      <point x="625" y="1821"/>
      <point x="525" y="1971"/>
      <point x="369" y="2049" type="curve" smooth="yes"/>
      <point x="312" y="2077"/>
      <point x="252" y="2094"/>
      <point x="178" y="2103" type="curve" smooth="yes"/>
      <point x="155" y="2105"/>
      <point x="91" y="2105"/>
      <point x="68" y="2103" type="curve" smooth="yes"/>
      <point x="1" y="2095"/>
      <point x="-63" y="2076"/>
      <point x="-95" y="2053" type="curve" smooth="yes"/>
      <point x="-121" y="2034"/>
      <point x="-150" y="2004"/>
      <point x="-172" y="1972" type="curve" smooth="yes"/>
      <point x="-233" y="1881"/>
      <point x="-256" y="1766"/>
      <point x="-237" y="1645" type="curve"/>
      <point x="-225" y="1562"/>
      <point x="-181" y="1488"/>
      <point x="-98" y="1411" type="curve" smooth="yes"/>
      <point x="-73" y="1387"/>
      <point x="-53" y="1370"/>
      <point x="6" y="1321" type="curve" smooth="yes"/>
      <point x="83" y="1256"/>
      <point x="100" y="1241"/>
      <point x="135" y="1206" type="curve" smooth="yes"/>
      <point x="164" y="1176"/>
      <point x="179" y="1158"/>
      <point x="205" y="1124" type="curve" smooth="yes"/>
      <point x="238" y="1079"/>
      <point x="269" y="1031"/>
      <point x="320" y="941" type="curve" smooth="yes"/>
      <point x="390" y="819"/>
      <point x="414" y="780"/>
      <point x="452" y="728" type="curve" smooth="yes"/>
      <point x="483" y="687"/>
      <point x="510" y="655"/>
      <point x="582" y="572" type="curve"/>
      <point x="639" y="508"/>
      <point x="660" y="483"/>
      <point x="684" y="454" type="curve" smooth="yes"/>
      <point x="781" y="332"/>
      <point x="826" y="238"/>
      <point x="836" y="135" type="curve" smooth="yes"/>
      <point x="838" y="117"/>
      <point x="838" y="79"/>
      <point x="836" y="60" type="curve" smooth="yes"/>
      <point x="829" y="-3"/>
      <point x="812" y="-60"/>
      <point x="786" y="-115" type="curve"/>
      <point x="766" y="-154"/>
      <point x="747" y="-184"/>
      <point x="717" y="-220" type="curve" smooth="yes"/>
      <point x="705" y="-235"/>
      <point x="662" y="-278"/>
      <point x="646" y="-291" type="curve" smooth="yes"/>
      <point x="587" y="-342"/>
      <point x="513" y="-388"/>
      <point x="437" y="-421" type="curve"/>
      <point x="339" y="-465"/>
      <point x="240" y="-486"/>
      <point x="142" y="-484" type="curve" smooth="yes"/>
      <point x="50" y="-482"/>
      <point x="-31" y="-461"/>
      <point x="-113" y="-420" type="curve" smooth="yes"/>
      <point x="-168" y="-392"/>
      <point x="-212" y="-360"/>
      <point x="-257" y="-316" type="curve"/>
      <point x="-286" y="-286"/>
      <point x="-307" y="-261"/>
      <point x="-329" y="-228" type="curve" smooth="yes"/>
      <point x="-380" y="-152"/>
      <point x="-418" y="-58"/>
      <point x="-431" y="28" type="curve"/>
      <point x="-437" y="61"/>
      <point x="-437" y="74"/>
      <point x="-437" y="113" type="curve"/>
      <point x="-438" y="150"/>
      <point x="-437" y="160"/>
      <point x="-433" y="189" type="curve" smooth="yes"/>
      <point x="-420" y="282"/>
      <point x="-382" y="373"/>
      <point x="-324" y="452" type="curve" smooth="yes"/>
      <point x="-292" y="495"/>
      <point x="-244" y="543"/>
      <point x="-200" y="578" type="curve" smooth="yes"/>
      <point x="-120" y="641"/>
      <point x="-27" y="692"/>
      <point x="65" y="722" type="curve" smooth="yes"/>
      <point x="106" y="736"/>
      <point x="134" y="742"/>
      <point x="141" y="740" type="curve" smooth="yes"/>
      <point x="152" y="736"/>
      <point x="150" y="726"/>
      <point x="135" y="709" type="curve"/>
      <point x="116" y="690"/>
      <point x="81" y="666"/>
      <point x="47" y="650" type="curve" smooth="yes"/>
      <point x="30" y="641"/>
      <point x="17" y="637"/>
      <point x="-1" y="632" type="curve" smooth="yes"/>
      <point x="-54" y="618"/>
      <point x="-79" y="604"/>
      <point x="-116" y="568" type="curve" smooth="yes"/>
      <point x="-153" y="531"/>
      <point x="-185" y="486"/>
      <point x="-210" y="435" type="curve" smooth="yes"/>
      <point x="-239" y="374"/>
      <point x="-256" y="310"/>
      <point x="-261" y="241" type="curve" smooth="yes"/>
      <point x="-263" y="207"/>
      <point x="-261" y="161"/>
      <point x="-256" y="125" type="curve" smooth="yes"/>
      <point x="-242" y="32"/>
      <point x="-196" y="-75"/>
      <point x="-136" y="-155" type="curve"/>
      <point x="-104" y="-196"/>
      <point x="-67" y="-233"/>
      <point x="-25" y="-264" type="curve" smooth="yes"/>
      <point x="66" y="-332"/>
      <point x="175" y="-370"/>
      <point x="295" y="-374" type="curve" smooth="yes"/>
      <point x="373" y="-376"/>
      <point x="463" y="-357"/>
      <point x="505" y="-329" type="curve" smooth="yes"/>
      <point x="509" y="-326"/>
      <point x="517" y="-320"/>
      <point x="522" y="-315" type="curve" smooth="yes"/>
      <point x="597" y="-250"/>
      <point x="647" y="-146"/>
      <point x="660" y="-32" type="curve" smooth="yes"/>
      <point x="662" y="-11"/>
      <point x="662" y="24"/>
      <point x="660" y="45" type="curve" smooth="yes"/>
      <point x="650" y="134"/>
      <point x="610" y="221"/>
      <point x="534" y="322" type="curve" smooth="yes"/>
      <point x="504" y="361"/>
      <point x="479" y="391"/>
      <point x="409" y="470" type="curve" smooth="yes"/>
      <point x="271" y="628"/>
      <point x="250" y="657"/>
      <point x="145" y="842" type="curve" smooth="yes"/>
      <point x="94" y="932"/>
      <point x="65" y="978"/>
      <point x="32" y="1023" type="curve" smooth="yes"/>
      <point x="7" y="1056"/>
      <point x="-9" y="1074"/>
      <point x="-37" y="1102" type="curve" smooth="yes"/>
      <point x="-69" y="1135"/>
      <point x="-88" y="1152"/>
      <point x="-164" y="1216" type="curve"/>
      <point x="-237" y="1276"/>
      <point x="-264" y="1299"/>
      <point x="-291" y="1327" type="curve" smooth="yes"/>
      <point x="-365" y="1403"/>
      <point x="-402" y="1471"/>
      <point x="-414" y="1553" type="curve" smooth="yes"/>
      <point x="-433" y="1680"/>
      <point x="-407" y="1802"/>
      <point x="-338" y="1903" type="curve" smooth="yes"/>
      <point x="-279" y="1990"/>
      <point x="-182" y="2070"/>
      <point x="-62" y="2130" type="curve" smooth="yes"/>
      <point x="38" y="2180"/>
      <point x="129" y="2206"/>
    </contour>
  </outline>
</glyph>
<glyph name="T" format="1">
  <advance width="530"/>
  <unicode hex="0054"/>
  <outline>
    <contour>
      <point x="76" y="1653" type="curve" smooth="yes"/>
      <point x="84" y="1655"/>
      <point x="93" y="1655"/>
      <point x="239" y="1655" type="curve" smooth="yes"/>
      <point x="352" y="1655"/>
      <point x="395" y="1655"/>
      <point x="397" y="1654" type="curve" smooth="yes"/>
      <point x="402" y="1652"/>
      <point x="403" y="1648"/>
      <point x="402" y="1642" type="curve"/>
      <point x="396" y="1625"/>
      <point x="357" y="1593"/>
      <point x="311" y="1569" type="curve" smooth="yes"/>
      <point x="294" y="1560"/>
      <point x="272" y="1551"/>
      <point x="260" y="1548" type="curve"/>
      <point x="253" y="1547" type="line"/>
      <point x="253" y="795" type="line"/>
      <point x="253" y="44" type="line"/>
      <point x="250" y="38" type="line" smooth="yes"/>
      <point x="247" y="31"/>
      <point x="229" y="13"/>
      <point x="214" y="2" type="curve" smooth="yes"/>
      <point x="159" y="-39"/>
      <point x="87" y="-67"/>
      <point x="78" y="-50" type="curve" smooth="yes"/>
      <point x="77" y="-49"/>
      <point x="77" y="204"/>
      <point x="77" y="748" type="curve" smooth="yes"/>
      <point x="77" y="1545" type="line"/>
      <point x="6" y="1545" type="line"/>
      <point x="-65" y="1545" type="line"/>
      <point x="-68" y="1547" type="line" smooth="yes"/>
      <point x="-76" y="1552"/>
      <point x="-72" y="1562"/>
      <point x="-57" y="1578" type="curve" smooth="yes"/>
      <point x="-26" y="1609"/>
      <point x="36" y="1644"/>
    </contour>
  </outline>
</glyph>
<glyph name="U" format="1">
  <advance width="680"/>
  <unicode hex="0055"/>
  <outline>
    <contour>
      <point x="156" y="1654" type="curve" smooth="yes"/>
      <point x="165" y="1656"/>
      <point x="171" y="1655"/>
      <point x="175" y="1653" type="curve" smooth="yes"/>
      <point x="179" y="1650" type="line"/>
      <point x="179" y="1076" type="line"/>
      <point x="179" y="501" type="line"/>
      <point x="177" y="497" type="line" smooth="yes"/>
      <point x="172" y="487"/>
      <point x="161" y="476"/>
      <point x="141" y="460" type="curve" smooth="yes"/>
      <point x="108" y="434"/>
      <point x="84" y="386"/>
      <point x="76" y="333" type="curve" smooth="yes"/>
      <point x="74" y="319"/>
      <point x="74" y="282"/>
      <point x="76" y="268" type="curve" smooth="yes"/>
      <point x="88" y="192"/>
      <point x="130" y="127"/>
      <point x="193" y="88" type="curve" smooth="yes"/>
      <point x="219" y="72"/>
      <point x="252" y="61"/>
      <point x="287" y="57" type="curve" smooth="yes"/>
      <point x="299" y="55"/>
      <point x="335" y="55"/>
      <point x="345" y="57" type="curve" smooth="yes"/>
      <point x="354" y="58"/>
      <point x="355" y="59"/>
      <point x="366" y="76" type="curve" smooth="yes"/>
      <point x="403" y="130"/>
      <point x="415" y="203"/>
      <point x="398" y="269" type="curve" smooth="yes"/>
      <point x="390" y="301"/>
      <point x="374" y="334"/>
      <point x="353" y="360" type="curve" smooth="yes"/>
      <point x="345" y="370"/>
      <point x="327" y="388"/>
      <point x="317" y="396" type="curve" smooth="yes"/>
      <point x="312" y="399"/>
      <point x="307" y="404"/>
      <point x="305" y="405" type="curve" smooth="yes"/>
      <point x="302" y="408" type="line"/>
      <point x="302" y="982" type="line"/>
      <point x="302" y="1556" type="line"/>
      <point x="305" y="1562" type="line" smooth="yes"/>
      <point x="323" y="1596"/>
      <point x="418" y="1652"/>
      <point x="462" y="1655" type="curve" smooth="yes"/>
      <point x="470" y="1655"/>
      <point x="471" y="1655"/>
      <point x="474" y="1653" type="curve" smooth="yes"/>
      <point x="478" y="1650" type="line"/>
      <point x="478" y="1079" type="line"/>
      <point x="478" y="508" type="line"/>
      <point x="485" y="502" type="line" smooth="yes"/>
      <point x="494" y="495"/>
      <point x="518" y="472"/>
      <point x="526" y="462" type="curve" smooth="yes"/>
      <point x="542" y="442"/>
      <point x="558" y="414"/>
      <point x="566" y="391" type="curve" smooth="yes"/>
      <point x="571" y="379"/>
      <point x="576" y="358"/>
      <point x="578" y="345" type="curve" smooth="yes"/>
      <point x="591" y="268"/>
      <point x="569" y="188"/>
      <point x="515" y="122" type="curve"/>
      <point x="465" y="59"/>
      <point x="371" y="-4"/>
      <point x="281" y="-35" type="curve" smooth="yes"/>
      <point x="237" y="-50"/>
      <point x="198" y="-56"/>
      <point x="156" y="-55" type="curve" smooth="yes"/>
      <point x="133" y="-54"/>
      <point x="125" y="-53"/>
      <point x="106" y="-49" type="curve" smooth="yes"/>
      <point x="86" y="-45"/>
      <point x="61" y="-37"/>
      <point x="41" y="-26" type="curve" smooth="yes"/>
      <point x="-25" y="7"/>
      <point x="-75" y="70"/>
      <point x="-93" y="143" type="curve"/>
      <point x="-115" y="227"/>
      <point x="-96" y="309"/>
      <point x="-39" y="380" type="curve" smooth="yes"/>
      <point x="-35" y="386"/>
      <point x="-23" y="398"/>
      <point x="-14" y="408" type="curve" smooth="yes"/>
      <point x="3" y="425" type="line"/>
      <point x="3" y="990" type="line"/>
      <point x="3" y="1556" type="line"/>
      <point x="6" y="1562" type="line"/>
      <point x="23" y="1593"/>
      <point x="109" y="1646"/>
    </contour>
  </outline>
</glyph>
<glyph name="V" format="1">
  <advance width="530"/>
  <unicode hex="0056"/>
  <outline>
    <contour>
      <point x="76" y="1653" type="curve" smooth="yes"/>
      <point x="93" y="1657"/>
      <point x="101" y="1655"/>
      <point x="103" y="1648" type="curve" smooth="yes"/>
      <point x="103" y="1646"/>
      <point x="119" y="1487"/>
      <point x="137" y="1295" type="curve"/>
      <point x="154" y="1102"/>
      <point x="169" y="944"/>
      <point x="169" y="944" type="curve"/>
      <point x="169" y="944"/>
      <point x="182" y="1082"/>
      <point x="198" y="1250" type="curve" smooth="yes"/>
      <point x="227" y="1556"/>
      <point x="227" y="1557"/>
      <point x="229" y="1562" type="curve" smooth="yes"/>
      <point x="233" y="1569"/>
      <point x="249" y="1586"/>
      <point x="262" y="1595" type="curve" smooth="yes"/>
      <point x="318" y="1638"/>
      <point x="395" y="1668"/>
      <point x="402" y="1649" type="curve" smooth="yes"/>
      <point x="402" y="1647"/>
      <point x="383" y="1432"/>
      <point x="328" y="845" type="curve" smooth="yes"/>
      <point x="253" y="48"/>
      <point x="253" y="43"/>
      <point x="250" y="38" type="curve" smooth="yes"/>
      <point x="247" y="31"/>
      <point x="229" y="13"/>
      <point x="214" y="2" type="curve" smooth="yes"/>
      <point x="172" y="-30"/>
      <point x="116" y="-55"/>
      <point x="90" y="-55" type="curve" smooth="yes"/>
      <point x="84" y="-55"/>
      <point x="79" y="-52"/>
      <point x="78" y="-49" type="curve" smooth="yes"/>
      <point x="77" y="-47"/>
      <point x="-72" y="1546"/>
      <point x="-72" y="1552" type="curve" smooth="yes"/>
      <point x="-72" y="1560"/>
      <point x="-68" y="1566"/>
      <point x="-57" y="1578" type="curve" smooth="yes"/>
      <point x="-26" y="1609"/>
      <point x="36" y="1644"/>
    </contour>
  </outline>
</glyph>
<glyph name="W" format="1">
  <advance width="790"/>
  <unicode hex="0057"/>
  <outline>
    <contour>
      <point x="106" y="1653" type="curve" smooth="yes"/>
      <point x="123" y="1657"/>
      <point x="131" y="1655"/>
      <point x="133" y="1648" type="curve" smooth="yes"/>
      <point x="133" y="1646"/>
      <point x="144" y="1433"/>
      <point x="156" y="1175" type="curve" smooth="yes"/>
      <point x="168" y="917"/>
      <point x="177" y="705"/>
      <point x="178" y="705" type="curve" smooth="yes"/>
      <point x="178" y="705"/>
      <point x="180" y="706"/>
      <point x="183" y="708" type="curve" smooth="yes"/>
      <point x="186" y="710"/>
      <point x="195" y="715"/>
      <point x="203" y="719" type="curve" smooth="yes"/>
      <point x="216" y="725"/>
      <point x="218" y="726"/>
      <point x="218" y="728" type="curve" smooth="yes"/>
      <point x="218" y="729"/>
      <point x="227" y="916"/>
      <point x="237" y="1144" type="curve"/>
      <point x="257" y="1557" type="line"/>
      <point x="259" y="1562" type="line"/>
      <point x="263" y="1569"/>
      <point x="279" y="1586"/>
      <point x="292" y="1595" type="curve" smooth="yes"/>
      <point x="348" y="1638"/>
      <point x="425" y="1668"/>
      <point x="432" y="1649" type="curve" smooth="yes"/>
      <point x="432" y="1647"/>
      <point x="421" y="1393"/>
      <point x="395" y="845" type="curve" smooth="yes"/>
      <point x="358" y="44" type="line"/>
      <point x="355" y="38" type="line" smooth="yes"/>
      <point x="352" y="31"/>
      <point x="334" y="13"/>
      <point x="319" y="2" type="curve" smooth="yes"/>
      <point x="277" y="-30"/>
      <point x="221" y="-55"/>
      <point x="195" y="-55" type="curve" smooth="yes"/>
      <point x="189" y="-55"/>
      <point x="184" y="-52"/>
      <point x="183" y="-49" type="curve" smooth="yes"/>
      <point x="182" y="-48"/>
      <point x="181" y="-37"/>
      <point x="180" y="-24" type="curve" smooth="yes"/>
      <point x="178" y="-11"/>
      <point x="177" y="1"/>
      <point x="176" y="3" type="curve"/>
      <point x="176" y="7" type="line"/>
      <point x="166" y="0" type="line"/>
      <point x="126" y="-30"/>
      <point x="71" y="-55"/>
      <point x="45" y="-55" type="curve" smooth="yes"/>
      <point x="39" y="-55"/>
      <point x="34" y="-52"/>
      <point x="33" y="-49" type="curve" smooth="yes"/>
      <point x="32" y="-47"/>
      <point x="-42" y="1538"/>
      <point x="-42" y="1550" type="curve" smooth="yes"/>
      <point x="-42" y="1560"/>
      <point x="-39" y="1565"/>
      <point x="-27" y="1578" type="curve" smooth="yes"/>
      <point x="4" y="1609"/>
      <point x="66" y="1644"/>
    </contour>
  </outline>
</glyph>
<glyph name="X" format="1">
  <advance width="590"/>
  <unicode hex="0058"/>
  <outline>
    <contour>
      <point x="106" y="1653" type="curve" smooth="yes"/>
      <point x="122" y="1656"/>
      <point x="131" y="1655"/>
      <point x="133" y="1649" type="curve" smooth="yes"/>
      <point x="133" y="1648"/>
      <point x="149" y="1562"/>
      <point x="169" y="1459" type="curve" smooth="yes"/>
      <point x="188" y="1356"/>
      <point x="204" y="1272"/>
      <point x="204" y="1272" type="curve"/>
      <point x="204" y="1272"/>
      <point x="216" y="1337"/>
      <point x="230" y="1415" type="curve" smooth="yes"/>
      <point x="252" y="1533"/>
      <point x="257" y="1558"/>
      <point x="260" y="1562" type="curve"/>
      <point x="263" y="1569"/>
      <point x="280" y="1586"/>
      <point x="292" y="1595" type="curve" smooth="yes"/>
      <point x="348" y="1638"/>
      <point x="425" y="1668"/>
      <point x="432" y="1649" type="curve" smooth="yes"/>
      <point x="432" y="1647"/>
      <point x="418" y="1570"/>
      <point x="358" y="1246" type="curve" smooth="yes"/>
      <point x="283" y="846" type="line"/>
      <point x="358" y="446" type="line" smooth="yes"/>
      <point x="427" y="75"/>
      <point x="433" y="46"/>
      <point x="431" y="42" type="curve" smooth="yes"/>
      <point x="425" y="21"/>
      <point x="366" y="-22"/>
      <point x="314" y="-44" type="curve" smooth="yes"/>
      <point x="288" y="-54"/>
      <point x="268" y="-57"/>
      <point x="261" y="-53" type="curve" smooth="yes"/>
      <point x="259" y="-52"/>
      <point x="258" y="-50"/>
      <point x="257" y="-49" type="curve" smooth="yes"/>
      <point x="257" y="-48"/>
      <point x="241" y="38"/>
      <point x="221" y="141" type="curve" smooth="yes"/>
      <point x="202" y="244"/>
      <point x="186" y="328"/>
      <point x="186" y="328" type="curve"/>
      <point x="186" y="328"/>
      <point x="174" y="263"/>
      <point x="160" y="185" type="curve"/>
      <point x="142" y="92"/>
      <point x="132" y="41"/>
      <point x="131" y="38" type="curve" smooth="yes"/>
      <point x="128" y="33"/>
      <point x="119" y="22"/>
      <point x="111" y="15" type="curve" smooth="yes"/>
      <point x="72" y="-19"/>
      <point x="7" y="-52"/>
      <point x="-26" y="-55" type="curve" smooth="yes"/>
      <point x="-34" y="-55"/>
      <point x="-35" y="-55"/>
      <point x="-38" y="-53" type="curve" smooth="yes"/>
      <point x="-41" y="-51"/>
      <point x="-42" y="-50"/>
      <point x="-42" y="-47" type="curve" smooth="yes"/>
      <point x="-42" y="-45"/>
      <point x="-9" y="136"/>
      <point x="32" y="355" type="curve" smooth="yes"/>
      <point x="107" y="754" type="line"/>
      <point x="32" y="1152" type="line" smooth="yes"/>
      <point x="-9" y="1371"/>
      <point x="-42" y="1552"/>
      <point x="-42" y="1554" type="curve" smooth="yes"/>
      <point x="-42" y="1559"/>
      <point x="-37" y="1567"/>
      <point x="-27" y="1578" type="curve" smooth="yes"/>
      <point x="4" y="1609"/>
      <point x="66" y="1644"/>
    </contour>
  </outline>
</glyph>
<glyph name="Y" format="1">
  <advance width="530"/>
  <unicode hex="0059"/>
  <outline>
    <contour>
      <point x="76" y="1653" type="curve" smooth="yes"/>
      <point x="92" y="1657"/>
      <point x="101" y="1655"/>
      <point x="103" y="1649" type="curve" smooth="yes"/>
      <point x="103" y="1647"/>
      <point x="119" y="1551"/>
      <point x="138" y="1435" type="curve" smooth="yes"/>
      <point x="157" y="1320"/>
      <point x="173" y="1225"/>
      <point x="173" y="1226" type="curve" smooth="yes"/>
      <point x="173" y="1226"/>
      <point x="185" y="1301"/>
      <point x="200" y="1392" type="curve" smooth="yes"/>
      <point x="224" y="1537"/>
      <point x="227" y="1558"/>
      <point x="230" y="1562" type="curve"/>
      <point x="233" y="1569"/>
      <point x="250" y="1586"/>
      <point x="262" y="1595" type="curve" smooth="yes"/>
      <point x="318" y="1638"/>
      <point x="395" y="1668"/>
      <point x="402" y="1649" type="curve" smooth="yes"/>
      <point x="402" y="1647"/>
      <point x="387" y="1550"/>
      <point x="328" y="1190" type="curve" smooth="yes"/>
      <point x="253" y="733" type="line"/>
      <point x="253" y="388" type="line"/>
      <point x="253" y="44" type="line"/>
      <point x="250" y="38" type="line" smooth="yes"/>
      <point x="247" y="31"/>
      <point x="229" y="13"/>
      <point x="214" y="2" type="curve" smooth="yes"/>
      <point x="159" y="-39"/>
      <point x="87" y="-67"/>
      <point x="78" y="-50" type="curve" smooth="yes"/>
      <point x="77" y="-49"/>
      <point x="77" y="62"/>
      <point x="77" y="295" type="curve" smooth="yes"/>
      <point x="77" y="639" type="line"/>
      <point x="3" y="1094" type="line" smooth="yes"/>
      <point x="-38" y="1345"/>
      <point x="-72" y="1552"/>
      <point x="-72" y="1553" type="curve" smooth="yes"/>
      <point x="-72" y="1559"/>
      <point x="-67" y="1567"/>
      <point x="-57" y="1578" type="curve" smooth="yes"/>
      <point x="-26" y="1609"/>
      <point x="36" y="1644"/>
    </contour>
  </outline>
</glyph>
<glyph name="Z" format="1">
  <advance width="590"/>
  <unicode hex="005A"/>
  <outline>
    <contour>
      <point x="106" y="1653" type="curve" smooth="yes"/>
      <point x="114" y="1655"/>
      <point x="123" y="1655"/>
      <point x="269" y="1655" type="curve" smooth="yes"/>
      <point x="438" y="1655"/>
      <point x="430" y="1655"/>
      <point x="432" y="1649" type="curve" smooth="yes"/>
      <point x="432" y="1647"/>
      <point x="404" y="1495"/>
      <point x="284" y="851" type="curve" smooth="yes"/>
      <point x="135" y="56" type="line"/>
      <point x="281" y="55" type="line" smooth="yes"/>
      <point x="364" y="55"/>
      <point x="427" y="54"/>
      <point x="428" y="54" type="curve" smooth="yes"/>
      <point x="432" y="52"/>
      <point x="433" y="47"/>
      <point x="432" y="42" type="curve" smooth="yes"/>
      <point x="424" y="16"/>
      <point x="345" y="-36"/>
      <point x="290" y="-52" type="curve"/>
      <point x="281" y="-54" type="line"/>
      <point x="123" y="-55" type="line"/>
      <point x="-35" y="-55" type="line"/>
      <point x="-38" y="-53" type="line" smooth="yes"/>
      <point x="-41" y="-51"/>
      <point x="-42" y="-50"/>
      <point x="-42" y="-46" type="curve" smooth="yes"/>
      <point x="-42" y="-44"/>
      <point x="25" y="315"/>
      <point x="106" y="751" type="curve" smooth="yes"/>
      <point x="255" y="1545" type="line"/>
      <point x="109" y="1545" type="line"/>
      <point x="-36" y="1546" type="line"/>
      <point x="-39" y="1548" type="line" smooth="yes"/>
      <point x="-46" y="1553"/>
      <point x="-42" y="1562"/>
      <point x="-27" y="1578" type="curve" smooth="yes"/>
      <point x="4" y="1609"/>
      <point x="66" y="1644"/>
    </contour>
  </outline>
</glyph>
